<?xml version="1.0" encoding="UTF-8" standalone="no"?>
<!-- Created with Inkscape (http://www.inkscape.org/) -->

<svg
   width="10.615718mm"
   height="15.108721mm"
   viewBox="0 0 10.615718 15.108721"
   version="1.1"
   id="svg1"
   xml:space="preserve"
   xmlns="http://www.w3.org/2000/svg"
   xmlns:svg="http://www.w3.org/2000/svg"><defs
     id="defs1" /><g
     id="layer1"
     transform="translate(-1.998414,-1.3958243)"><g
       id="g2"
       transform="matrix(0.26458333,0,0,0.26458333,-2.2187268,0.37599494)"><g
         id="line-supplement"><circle
           cx="39.239799"
           cy="46.401699"
           r="1"
           id="circle1" /><circle
           cx="32.760201"
           cy="46.401699"
           r="1"
           id="circle2" /></g><g
         id="color"><path
           fill="#3f3f3f"
           d="m 46.4055,28.4893 h -0.001 L 25.6926,28.4678 a 0.97,0.97 0 0 1 -0.5215,-0.1524 5.512,5.512 0 0 1 -2.292,-3.3125 4.7061,4.7061 0 0 1 0.6885,-3.331 C 22.51,20.04 21.5432,17.18 23.3889,14.77 22.7981,12.7857 22.5881,9.5689 24.9889,8.1 A 3.1072,3.1072 0 0 1 25.43,6.43 c 0.6778,-1.1358 2.0459,-1.8672 4.0655,-2.1729 a 52.1685,52.1685 0 0 1 13.0693,0.0166 v 0 c 1.958,0.2159 3.3115,0.8848 4.0234,1.9883 a 3.2531,3.2531 0 0 1 0.5176,1.8565 c 2.4062,1.4665 2.1952,4.6872 1.6042,6.6725 1.8457,2.4111 0.8789,5.2715 -0.1787,6.9024 a 4.7037,4.7037 0 0 1 0.6875,3.332 5.5077,5.5077 0 0 1 -2.292,3.3125 0.9749,0.9749 0 0 1 -0.5213,0.1514 z"
           id="path2" /><path
           fill="#3f3f3f"
           d="m 44.6055,46.5494 a 0.997,0.997 0 0 0 0.0433,-0.2152 c 0,-0.0083 0.0048,-0.0152 0.0048,-0.0237 a 0.9862,0.9862 0 0 0 -0.0522,-0.3 c -0.0035,-0.0112 -0.0019,-0.023 -0.0058,-0.034 a 0.9908,0.9908 0 0 0 -0.1894,-0.316 c -0.0058,-0.0069 -0.0073,-0.0158 -0.0134,-0.0226 -0.0193,-0.0213 -0.0459,-0.03 -0.0666,-0.049 A 0.99,0.99 0 0 0 44.118,45.436 0.9653,0.9653 0 0 0 43.9912,45.383 0.9823,0.9823 0 0 0 43.8791,45.3361 V 41.9065 A 0.9808,0.9808 0 0 0 43.6379,41.0352 0.9978,0.9978 0 0 0 42.2248,41.001 8.6275,8.6275 0 0 1 29.8137,40.9678 0.9414,0.9414 0 0 0 29.7104,40.9022 0.6748,0.6748 0 0 0 29.2631,40.7172 0.949,0.949 0 0 0 29.1204,40.6885 l -0.01,0.002 a 0.9993,0.9993 0 0 0 -0.2966,0.06 c -0.0273,0.009 -0.0587,0.0071 -0.0849,0.0183 -0.0262,0.0112 -0.044,0.0331 -0.0679,0.0457 a 0.9983,0.9983 0 0 0 -0.2537,0.1757 l -0.0075,0.0052 a 0.9364,0.9364 0 0 0 -0.0677,0.1064 0.6773,0.6773 0 0 0 -0.1841,0.45 0.9687,0.9687 0 0 0 -0.0275,0.1372 v 3.667 c -0.0264,0.0082 -0.0478,0.026 -0.0733,0.0363 a 1.1015,1.1015 0 0 0 -0.3127,0.2056 c -0.0174,0.0165 -0.04,0.0233 -0.0564,0.0413 -0.0091,0.01 -0.0113,0.023 -0.02,0.0332 a 0.9837,0.9837 0 0 0 -0.1693,0.2835 c -0.0038,0.01 -0.0116,0.0184 -0.015,0.0285 a 0.998,0.998 0 0 0 -0.0557,0.3266 c 0,0.0085 0.0046,0.0154 0.0048,0.0237 a 0.999,0.999 0 0 0 0.0453,0.2247 1.0286,1.0286 0 0 0 0.0378,0.155 4.9237,4.9237 0 0 0 0.2236,0.3166 c 0.0066,0.0063 0.0088,0.0151 0.0157,0.0213 a 12.336,12.336 0 0 0 16.581,-0.002 c 0.0056,-0.0051 0.0073,-0.0123 0.0127,-0.0174 a 0.9852,0.9852 0 0 0 0.1433,-0.195 1.0056,1.0056 0 0 0 0.0827,-0.1226 1.0351,1.0351 0 0 0 0.0405,-0.1659 z"
           id="path3" /><circle
           cx="39.239799"
           cy="46.401699"
           r="1"
           fill="#fcea2b"
           id="circle3" /><circle
           cx="32.760201"
           cy="46.401699"
           r="1"
           fill="#fcea2b"
           id="circle4" /><path
           fill="#34495e"
           d="m 46.5207,45.3105 h -2.8671 a 0.9369,0.9369 0 0 0 -0.1485,0.03 0.6568,0.6568 0 0 0 -0.4077,0.1609 0.9282,0.9282 0 0 0 -0.1167,0.07 10.3362,10.3362 0 0 1 -13.89,0 0.9528,0.9528 0 0 0 -0.1149,-0.0687 0.6426,0.6426 0 0 0 -0.3969,-0.16 0.9462,0.9462 0 0 0 -0.1611,-0.0325 h -2.939 c -5.2608,0 -9.54,4.5987 -9.54,10.252 v 4.3857 a 0.9994,0.9994 0 0 0 1,1 h 38.122 a 0.9994,0.9994 0 0 0 1,-1 v -4.3854 c 0,-5.6533 -4.2793,-10.252 -9.5401,-10.252 z"
           id="path4" /><path
           fill="#475f77"
           d="m 39.2414,47.745 c 4.9892,0 10.5082,4.8859 10.5082,9.1454 v 3.3044 l -0.0051,0.7534 h 5.3163 a 0.9994,0.9994 0 0 0 1,-1 v -4.3857 c 0,-5.6533 -4.2793,-10.252 -9.54,-10.252 h -2.8672 a 0.9369,0.9369 0 0 0 -0.1485,0.03 0.6568,0.6568 0 0 0 -0.4077,0.1609 0.9282,0.9282 0 0 0 -0.1167,0.07 10.28,10.28 0 0 1 -3.7393,2.1737"
           id="path5" /><rect
           x="33.760201"
           y="49.1661"
           width="4.4796"
           height="11.7922"
           fill="#ffffff"
           id="rect5" /></g><g
         id="skin"><path
           fill="#ffffff"
           d="m 36.0354,45.6182 c -6.7744,0 -12.2852,-6.7159 -12.2852,-14.97 a 9.9893,9.9893 0 0 1 0.4024,-2.8188 0.9715,0.9715 0 0 1 0.98,-0.789 l 21.8213,0.0488 a 1.0009,1.0009 0 0 1 0.9765,0.792 9.9021,9.9021 0 0 1 0.3916,2.767 c -5e-4,8.2541 -5.512,14.97 -12.2866,14.97 z"
           id="path6" /></g><g
         id="line"><path
           d="m 30.0565,29.0923 a 2,2 0 1 0 2,-2 2.0007,2.0007 0 0 0 -2,2"
           id="path7" /><path
           d="m 38.0565,29.0923 a 2,2 0 1 0 2,-2 2.0007,2.0007 0 0 0 -2,2"
           id="path8" /><path
           fill="none"
           stroke="#000000"
           stroke-linecap="round"
           stroke-linejoin="round"
           stroke-width="2"
           d="m 46.9516,27.09 a 17.1481,17.1481 0 0 1 0.37,3.5589 c 0,7.7153 -5.0527,13.97 -11.2855,13.97 -6.2328,0 -11.2861,-6.2552 -11.2861,-13.9705 a 17.1437,17.1437 0 0 1 0.38,-3.6078"
           id="path9" /><path
           fill="none"
           stroke="#000000"
           stroke-linecap="round"
           stroke-linejoin="round"
           stroke-width="2"
           d="m 43.6536,46.3105 a 11.3358,11.3358 0 0 1 -15.235,8e-4"
           id="path10" /><path
           fill="none"
           stroke="#000000"
           stroke-linecap="round"
           stroke-linejoin="round"
           stroke-width="1.9438"
           d="m 42.4584,5.24 c 4.5464,0.5012 3.5921,3.4379 3.5921,3.4379 3.4406,1.3518 1.5642,6.3249 1.5642,6.3249 2.7761,2.9383 -0.2658,6.6689 -0.2658,6.6689 a 3.89,3.89 0 0 1 -0.9433,5.8465 l -20.7121,-0.022 a 3.89,3.89 0 0 1 -0.9433,-5.8466 c 0,0 -3.0419,-3.73 -0.2658,-6.6688 0,0 -1.8764,-4.9731 1.5642,-6.3249 0,0 -0.9852,-2.7449 3.5921,-3.4379 A 51.7141,51.7141 0 0 1 42.4584,5.24 Z"
           id="path11" /><path
           fill="none"
           stroke="#000000"
           stroke-linecap="round"
           stroke-linejoin="round"
           stroke-width="2"
           d="m 16.9388,59.9485 v -4.3861 c 0,-5.11 3.8236,-9.2521 8.54,-9.2521 H 29.12 v -4.622"
           id="path12" /><path
           fill="none"
           stroke="#000000"
           stroke-linecap="round"
           stroke-linejoin="round"
           stroke-width="2"
           d="m 55.0612,59.9485 v -4.3861 c 0,-5.11 -3.8236,-9.2521 -8.54,-9.2521 H 42.88 v -4.5532"
           id="path13" /><line
           x1="34.0312"
           x2="34.0312"
           y1="49.1661"
           y2="59.948502"
           fill="none"
           stroke="#000000"
           stroke-linecap="round"
           stroke-linejoin="round"
           stroke-width="2"
           id="line13" /><line
           x1="38.040901"
           x2="38.040901"
           y1="49.1661"
           y2="59.948502"
           fill="none"
           stroke="#000000"
           stroke-linecap="round"
           stroke-linejoin="round"
           stroke-width="2"
           id="line14" /><path
           fill="none"
           stroke="#000000"
           stroke-linecap="round"
           stroke-linejoin="round"
           stroke-width="2"
           d="m 25.13,27.0406 c 0,0 1.6027,13.9578 10.87,13.9578 9.9252,0 10.9516,-13.9089 10.9516,-13.9089"
           id="path14" /><path
           fill="none"
           stroke="#000000"
           stroke-linecap="round"
           stroke-linejoin="round"
           stroke-width="2"
           d="m 36.062,35.0442 c 0,0 1.2,-2 3.6,0 a 2.3616,2.3616 0 0 0 1.3875,0.6875"
           id="path15" /><path
           fill="none"
           stroke="#000000"
           stroke-linecap="round"
           stroke-linejoin="round"
           stroke-width="2"
           d="m 36.05,35.0442 c 0,0 -1.2,-2 -3.6,0 a 2.361,2.361 0 0 1 -1.3875,0.6875"
           id="path16" /></g></g><path
       d="m 8.8808843,4.6921511 q 0,0.5453862 -0.2067584,0.9279705 -0.2051303,0.3825843 -0.5600383,0.5844586 -0.35328,0.2002463 -0.794473,0.2002463 -0.444449,0 -0.797729,-0.2018743 Q 6.1686056,6.0010779 5.9634753,5.6184936 5.758345,5.2359093 5.758345,4.6921511 q 0,-0.5453862 0.2051303,-0.9279705 0.2051303,-0.3825843 0.5584103,-0.5828306 0.35328,-0.2018743 0.797729,-0.2018743 0.441193,0 0.794473,0.2018743 0.354908,0.2002463 0.5600383,0.5828306 0.2067584,0.3825843 0.2067584,0.9279705 z m -0.7147001,0 q 0,-0.35328 -0.1058212,-0.5958547 Q 7.9561698,3.8537216 7.7656917,3.7283642 7.5752135,3.6030068 7.3196146,3.6030068 q -0.2555989,0 -0.446077,0.1253574 -0.1904782,0.1253574 -0.2962994,0.3679322 -0.1041931,0.2425747 -0.1041931,0.5958547 0,0.35328 0.1041931,0.5958548 0.1058212,0.2425747 0.2962994,0.3679321 0.1904781,0.1253574 0.446077,0.1253574 0.2555989,0 0.4460771,-0.1253574 Q 7.9561698,5.5305806 8.060363,5.2880059 8.1661842,5.0454311 8.1661842,4.6921511 Z"
       id="text2"
       style="font-weight:bold;font-size:4.5845px;font-family:Inter;-inkscape-font-specification:'Inter Bold';fill:#999999;stroke-width:0.107449"
       aria-label="O" /></g></svg>
